<svg width="106" height="84" viewBox="0 0 106 84" fill="none" xmlns="http://www.w3.org/2000/svg">
<path d="M47.5459 64.8547C47.5459 69.9601 45.4907 74.4273 41.3803 78.2564C37.349 82.0855 32.5667 84 27.0336 84C18.3386 84 11.6592 81.0883 6.99553 75.265C2.33184 69.4416 0 61.3846 0 51.094C0 41.5214 3.9918 31.8689 11.9754 22.1368C20.038 12.4046 29.7211 5.02564 41.0246 0L46.2416 8.49573C37.3095 12.8832 30.3139 17.9886 25.255 23.812C20.1961 29.6353 17.2714 36.6952 16.481 44.9915H23.1208C28.0216 44.9915 32.0134 45.5499 35.0962 46.6667C38.179 47.7835 40.6689 49.339 42.566 51.3333C44.384 53.2479 45.6488 55.3618 46.3602 57.6752C47.1506 59.9886 47.5459 62.3818 47.5459 64.8547ZM106 64.8547C106 69.9601 103.945 74.4273 99.8345 78.2564C95.8031 82.0855 91.0209 84 85.4877 84C76.7927 84 70.1133 81.0883 65.4497 75.265C60.786 69.4416 58.4541 61.3846 58.4541 51.094C58.4541 41.5214 62.4459 31.8689 70.4295 22.1368C78.4922 12.4046 88.1752 5.02564 99.4788 0L104.696 8.49573C95.7636 12.8832 88.7681 17.9886 83.7092 23.812C78.6503 29.6353 75.7256 36.6952 74.9351 44.9915H81.5749C86.4758 44.9915 90.4676 45.5499 93.5503 46.6667C96.6331 47.7835 99.123 49.339 101.02 51.3333C102.838 53.2479 104.103 55.3618 104.814 57.6752C105.605 59.9886 106 62.3818 106 64.8547Z" fill="black"/>
</svg>
