<svg width="41" height="40" viewBox="0 0 41 40" fill="none" xmlns="http://www.w3.org/2000/svg">
<path fill-rule="evenodd" clip-rule="evenodd" d="M20.9043 0C9.8586 0 0.904297 8.9543 0.904297 20C0.904297 31.0457 9.8586 40 20.9043 40C31.95 40 40.9043 31.0457 40.9043 20C40.9043 8.9543 31.95 0 20.9043 0ZM10.5067 16.5646H15.0391V30.1827H10.5067V16.5646ZM15.3375 12.3521C15.308 11.0168 14.3532 9.99981 12.8027 9.99981C11.2522 9.99981 10.2385 11.0168 10.2385 12.3521C10.2385 13.6596 11.2222 14.7059 12.7438 14.7059H12.7728C14.3532 14.7059 15.3375 13.6596 15.3375 12.3521ZM26.166 16.2449C29.1486 16.2449 31.3845 18.1917 31.3845 22.3746L31.3844 30.1828H26.8521V22.8971C26.8521 21.0671 26.1962 19.8184 24.5555 19.8184C23.3033 19.8184 22.5575 20.6602 22.2299 21.4733C22.11 21.7647 22.0806 22.1707 22.0806 22.5777V30.1832H17.5476C17.5476 30.1832 17.6074 17.8429 17.5476 16.5651H22.0806V18.494C22.6822 17.5667 23.7596 16.2449 26.166 16.2449Z" fill="black"/>
</svg>
