<svg width="33" height="185" viewBox="0 0 33 185" fill="none" xmlns="http://www.w3.org/2000/svg">
<path d="M22.8182 128.75L22.8182 136.562L9.73242 136.562L9.73242 135.283L21.8112 135.283L21.8112 128.75L22.8182 128.75Z" fill="black"/>
<path d="M22.8182 122.646L22.8182 123.921L9.73242 123.921L9.73242 122.646L22.8182 122.646Z" fill="black"/>
<path d="M9.49023 111.279C9.49023 110.272 9.74858 109.375 10.2653 108.601C10.7819 107.822 11.5412 107.254 12.5429 106.893L13.0279 107.961C11.3724 108.565 10.5447 109.669 10.5447 111.284C10.5447 112.713 11.0297 113.75 11.9946 114.4C12.9594 115.051 14.4251 115.37 16.3811 115.37C17.3038 115.37 18.1051 115.303 18.78 115.164C19.4548 115.03 20.0401 114.808 20.5251 114.504C21.0154 114.199 21.3792 113.792 21.627 113.276C21.8696 112.765 21.9961 112.14 21.9961 111.413C21.9961 111.036 21.9328 110.654 21.8063 110.272C21.6797 109.891 21.4899 109.529 21.2422 109.189C20.9944 108.854 20.6622 108.575 20.251 108.363C19.8345 108.152 19.3758 108.043 18.8591 108.043L16.8925 108.043L16.8925 111.299L15.7748 111.299L15.7748 106.784L17.6359 106.784L22.8291 106.872L22.8291 107.687L21.1209 107.966C21.685 108.296 22.149 108.786 22.5075 109.431C22.866 110.076 23.0453 110.788 23.0453 111.573C23.0453 114.999 20.8204 116.707 16.3758 116.707C15.1738 116.707 14.1246 116.578 13.2388 116.32C12.3531 116.062 11.6361 115.696 11.093 115.216C10.55 114.731 10.1493 114.168 9.89093 113.513C9.61677 112.863 9.49023 112.115 9.49023 111.279Z" fill="black"/>
<path d="M15.3425 91.9188L9.72754 91.9188L9.72754 90.6494L22.8133 90.6494L22.8133 91.9188L16.3759 91.9188L16.3759 99.5297L22.8133 99.5297L22.8133 100.809L9.72754 100.809L9.72754 99.5297L15.3425 99.5297L15.3425 91.9188Z" fill="black"/>
<path d="M10.7291 85.6959L9.7168 85.6959L9.7168 76.0624L10.7291 76.0624L10.7291 80.2109L22.8131 80.2109L22.8131 81.5473L10.7291 81.5473L10.7291 85.6959Z" fill="black"/>
<path d="M15.3425 61.857L9.72754 61.857L9.72754 60.5877L22.8133 60.5877L22.8133 61.857L16.3759 61.857L16.3759 69.4679L22.8133 69.4679L22.8133 70.7476L9.72754 70.7476L9.72754 69.4679L15.3425 69.4679L15.3425 61.857Z" fill="black"/>
<path d="M9.49023 49.3857C9.49023 48.5343 9.61677 47.7861 9.86457 47.1411C10.1124 46.4961 10.5025 45.9388 11.0245 45.4641C11.5464 44.9894 12.2424 44.6334 13.1123 44.3909C13.9769 44.1483 15.005 44.0297 16.1913 44.0297C18.5744 44.0297 20.3142 44.4837 21.4003 45.3867C22.4917 46.2897 23.0347 47.6261 23.0347 49.3908C23.0347 50.2474 22.9082 50.9956 22.6604 51.6405C22.4126 52.2804 22.0172 52.8376 21.4794 53.302C20.9416 53.7664 20.2351 54.1173 19.3494 54.3547C18.4689 54.592 17.4145 54.7107 16.1913 54.7107C14.9998 54.7107 13.9717 54.5869 13.1017 54.3495C12.2371 54.107 11.5359 53.7561 11.0086 53.2866C10.4814 52.8222 10.0913 52.2649 9.84875 51.6199C9.6115 50.9749 9.49023 50.2319 9.49023 49.3857ZM10.5341 49.396C10.5341 50.0049 10.6185 50.5363 10.7925 50.9956C10.9665 51.4548 11.209 51.8315 11.5201 52.1307C11.8311 52.43 12.2265 52.6725 12.7063 52.8634C13.1808 53.0492 13.7028 53.1834 14.2669 53.2608C14.8311 53.3382 15.4743 53.3794 16.1913 53.3794C18.2 53.3794 19.6657 53.075 20.5937 52.4713C21.5216 51.8676 21.9855 50.8408 21.9855 49.3908C21.9855 47.9409 21.5269 46.9089 20.6095 46.3C19.6921 45.6963 18.2211 45.3919 16.2018 45.3919C15.4795 45.3919 14.8363 45.4332 14.2722 45.5106C13.7081 45.588 13.1861 45.7221 12.7063 45.913C12.2318 46.104 11.8364 46.3516 11.5201 46.6509C11.209 46.9553 10.9665 47.3372 10.7925 47.7913C10.6185 48.2505 10.5341 48.782 10.5341 49.396Z" fill="black"/>
<path d="M17.6883 38.3743L9.73242 38.3743L9.73242 36.9759L17.4721 36.9759C18.031 36.9759 18.5266 36.9501 18.9484 36.8985C19.3702 36.8469 19.7761 36.7437 20.1663 36.5941C20.5564 36.4445 20.878 36.2381 21.1258 35.9904C21.3736 35.7375 21.574 35.4073 21.7216 34.9997C21.8692 34.5869 21.943 34.1019 21.943 33.5446C21.943 32.9873 21.8692 32.5023 21.7216 32.0946C21.574 31.687 21.3789 31.3568 21.1258 31.1091C20.878 30.8614 20.5564 30.6602 20.1663 30.5157C19.7761 30.3661 19.3702 30.268 18.9484 30.2164C18.5266 30.1648 18.0363 30.139 17.4721 30.139L9.73242 30.139L9.73242 28.7665L17.625 28.7665C19.4914 28.7665 20.8622 29.1587 21.7321 29.9481C22.6073 30.7324 23.0397 31.9553 23.0397 33.6065C23.0397 35.2164 22.6126 36.4187 21.7585 37.2081C20.9044 37.9769 19.5441 38.3743 17.6883 38.3743Z" fill="black"/>
<path d="M9.56934 18.6842C9.56934 17.6522 9.74332 16.7802 10.0966 16.0629C10.4498 15.3509 11.0192 14.7368 11.8153 14.2312L12.5324 15.1754C11.9102 15.5212 11.441 15.9855 11.1141 16.5686C10.7925 17.1517 10.6291 17.7967 10.6291 18.5036C10.6291 19.4169 10.803 20.1651 11.1457 20.743C11.4937 21.3209 12.0209 21.6099 12.738 21.6099C13.0174 21.6099 13.2757 21.5479 13.5077 21.4241C13.7397 21.3003 13.9295 21.1558 14.0824 20.9803C14.23 20.8101 14.3777 20.5779 14.52 20.2889C14.6624 20 14.7731 19.742 14.8522 19.5098C14.9312 19.2776 15.0261 18.9938 15.1369 18.6481C15.2476 18.3023 15.3425 18.0392 15.4163 17.8534C15.5692 17.4613 15.701 17.1414 15.8064 16.8937C15.9119 16.6409 16.0384 16.3622 16.1966 16.0629C16.3495 15.7585 16.4971 15.516 16.6289 15.3302C16.7607 15.1445 16.9242 14.9536 17.114 14.7626C17.3038 14.5717 17.5041 14.4221 17.715 14.3189C17.9259 14.2157 18.1632 14.1331 18.432 14.0661C18.7009 13.999 18.9962 13.9629 19.3125 13.9629C20.4882 13.9629 21.4003 14.3911 22.0594 15.2528C22.7184 16.1145 23.0453 17.2652 23.0453 18.71C23.0453 19.1228 23.0084 19.5356 22.9398 19.938C22.866 20.3405 22.7448 20.7533 22.5761 21.1713C22.4021 21.5892 22.1859 21.9607 21.9223 22.2961C21.6587 22.6315 21.3213 22.9205 20.9047 23.1733C20.4882 23.4261 20.019 23.6016 19.4918 23.6945L19.0173 22.6212C19.9979 22.358 20.7308 21.8988 21.2053 21.2435C21.6798 20.5882 21.9223 19.7162 21.9223 18.6326C21.9223 18.3023 21.8959 17.9824 21.8485 17.678C21.7958 17.3736 21.7114 17.0743 21.5849 16.7802C21.4583 16.4861 21.3054 16.2332 21.1156 16.0165C20.9258 15.7998 20.6833 15.6243 20.3828 15.4954C20.0823 15.3612 19.7396 15.2993 19.36 15.2993C19.1174 15.2993 18.8907 15.3302 18.6904 15.3973C18.49 15.4644 18.3161 15.5315 18.1684 15.5986C18.0208 15.6708 17.8732 15.8101 17.715 16.0165C17.5621 16.2281 17.4409 16.3932 17.3512 16.517C17.2669 16.6409 17.1509 16.8782 17.0085 17.2239C16.8662 17.5748 16.7607 17.838 16.6975 18.0082C16.6342 18.1785 16.5182 18.5036 16.3548 18.9731C16.3231 19.0505 16.302 19.1073 16.2915 19.1486C15.9224 20.1857 15.6219 20.9133 15.3899 21.3157C14.8574 22.2548 14.1615 22.7915 13.2968 22.9153C13.1545 22.9308 13.0069 22.9411 12.8487 22.9411C12.3056 22.9411 11.8206 22.8224 11.3935 22.5851C10.9665 22.3477 10.6185 22.0227 10.3602 21.6202C10.1018 21.2125 9.90676 20.7636 9.77495 20.2631C9.6326 19.7678 9.56934 19.2415 9.56934 18.6842Z" fill="black"/>
<path d="M22.8182 1.85664e-05L22.8182 8.57581L9.73242 8.57581L9.73242 0.0980587L10.7342 0.0980587L10.7342 7.29614L15.3316 7.29614L15.3316 1.032L16.3597 1.032L16.3597 7.29614L21.8112 7.29614L21.8112 1.86054e-05L22.8182 1.85664e-05Z" fill="black"/>
<path d="M24.6743 168.497L32.2189 168.497L32.2189 175.128L32.2189 178.022L32.2189 184.957L0 184.957L-3.41924e-07 178.022L-3.70163e-07 177.449L24.6743 177.449L24.6743 168.497Z" fill="black"/>
<path d="M-6.04578e-07 159.849L9.63773 159.849L9.63773 170.736L17.1665 170.736L17.1665 159.849L32.2189 159.849L32.2189 152.486L-1.01346e-06 152.486L-6.04578e-07 159.849Z" fill="black"/>
</svg>
