<svg width="322" height="56" viewBox="0 0 322 56" fill="none" xmlns="http://www.w3.org/2000/svg">
<path d="M97.6935 39.6606H84.1152V16.916H86.3394V37.9103H97.6935V39.6606Z" fill="#56C4C8"/>
<path d="M108.303 39.6606H106.088V16.916H108.303V39.6606Z" fill="#56C4C8"/>
<path d="M128.061 16.4946C129.81 16.4946 131.37 16.9437 132.715 17.8417C134.07 18.7398 135.056 20.0593 135.684 21.8005L133.828 22.6435C132.778 19.7661 130.859 18.3274 128.052 18.3274C125.568 18.3274 123.765 19.1705 122.635 20.8474C121.505 22.5244 120.949 25.0719 120.949 28.4717C120.949 30.0754 121.065 31.4683 121.308 32.6412C121.541 33.8142 121.926 34.8314 122.456 35.6745C122.985 36.5267 123.693 37.159 124.59 37.5897C125.478 38.0112 126.563 38.2312 127.828 38.2312C128.482 38.2312 129.146 38.1212 129.81 37.9013C130.473 37.6813 131.101 37.3514 131.693 36.9208C132.276 36.4901 132.76 35.9127 133.128 35.198C133.496 34.474 133.684 33.6768 133.684 32.7787V29.3606H128.025V27.4179H135.872V30.6527L135.72 39.6791H134.303L133.819 36.71C133.245 37.6905 132.393 38.4969 131.272 39.1201C130.151 39.7432 128.913 40.0548 127.55 40.0548C121.595 40.0548 118.626 36.1876 118.626 28.4626C118.626 26.3732 118.85 24.5496 119.299 23.0101C119.747 21.4706 120.384 20.2243 121.218 19.2804C122.061 18.3366 123.038 17.6401 124.177 17.1911C125.308 16.7146 126.608 16.4946 128.061 16.4946Z" fill="#56C4C8"/>
<path d="M161.711 26.6667V16.9072H163.917V39.6518H161.711V28.4628H148.482V39.6518H146.258V16.9072H148.482V26.6667H161.711Z" fill="#56C4C8"/>
<path d="M172.526 18.6486V16.8892H189.271V18.6486H182.06V39.652H179.737V18.6486H172.526Z" fill="#56C4C8"/>
<path d="M213.962 26.6667V16.9072H216.168V39.6518H213.962V28.4628H200.733V39.6518H198.509V16.9072H200.733V26.6667H213.962Z" fill="#2498A4"/>
<path d="M235.638 16.4946C237.118 16.4946 238.419 16.7146 239.54 17.1453C240.661 17.576 241.629 18.2541 242.454 19.1613C243.279 20.0685 243.898 21.2781 244.32 22.7902C244.741 24.293 244.948 26.08 244.948 28.1418C244.948 32.2839 244.158 35.3079 242.589 37.1957C241.019 39.0926 238.697 40.0364 235.629 40.0364C234.141 40.0364 232.84 39.8165 231.719 39.3858C230.607 38.9551 229.638 38.2678 228.831 37.3331C228.024 36.3984 227.414 35.1705 227.002 33.6309C226.589 32.1006 226.383 30.2678 226.383 28.1418C226.383 26.0708 226.598 24.2839 227.011 22.7718C227.432 21.269 228.042 20.0502 228.858 19.1338C229.665 18.2174 230.634 17.5393 231.755 17.1178C232.876 16.7054 234.167 16.4946 235.638 16.4946ZM235.62 18.3091C234.562 18.3091 233.638 18.4557 232.84 18.7581C232.042 19.0605 231.387 19.482 230.867 20.0227C230.347 20.5634 229.925 21.2506 229.594 22.0845C229.271 22.9093 229.037 23.8165 228.903 24.797C228.768 25.7776 228.697 26.8955 228.697 28.1418C228.697 31.6332 229.226 34.1808 230.275 35.7936C231.324 37.4064 233.109 38.2128 235.629 38.2128C238.149 38.2128 239.943 37.4156 241.001 35.8211C242.051 34.2266 242.58 31.6699 242.58 28.1601C242.58 26.9047 242.508 25.7867 242.374 24.8062C242.239 23.8257 242.006 22.9185 241.674 22.0845C241.342 21.2598 240.912 20.5725 240.392 20.0227C239.862 19.482 239.199 19.0605 238.41 18.7581C237.611 18.4557 236.688 18.3091 235.62 18.3091Z" fill="#2498A4"/>
<path d="M254.776 30.7442V16.916H257.207V30.3685C257.207 31.3398 257.252 32.2012 257.341 32.9343C257.431 33.6674 257.61 34.3731 257.871 35.0512C258.131 35.7293 258.489 36.2883 258.92 36.719C259.359 37.1497 259.933 37.4979 260.642 37.7545C261.359 38.0111 262.202 38.1394 263.171 38.1394C264.139 38.1394 264.983 38.0111 265.691 37.7545C266.4 37.4979 266.974 37.1589 267.404 36.719C267.835 36.2883 268.184 35.7293 268.435 35.0512C268.695 34.3731 268.866 33.6674 268.956 32.9343C269.045 32.2012 269.09 31.349 269.09 30.3685V16.916H271.476V30.6342C271.476 33.8782 270.794 36.2608 269.422 37.7728C268.059 39.294 265.933 40.0455 263.063 40.0455C260.265 40.0455 258.175 39.3032 256.803 37.8187C255.467 36.3341 254.776 33.9699 254.776 30.7442Z" fill="#2498A4"/>
<path d="M289 16.6318C290.794 16.6318 292.31 16.9342 293.556 17.5482C294.794 18.1622 295.861 19.1519 296.74 20.5356L295.099 21.7819C294.498 20.7006 293.691 19.885 292.677 19.3168C291.664 18.7578 290.543 18.4738 289.314 18.4738C287.727 18.4738 286.426 18.7762 285.422 19.3718C284.418 19.9766 283.915 20.893 283.915 22.1393C283.915 22.625 284.023 23.074 284.238 23.4772C284.453 23.8804 284.704 24.2103 285.009 24.476C285.305 24.7326 285.709 24.9892 286.211 25.2366C286.713 25.4841 287.162 25.6765 287.565 25.814C287.969 25.9514 288.462 26.1164 289.063 26.3088C289.664 26.5013 290.121 26.6662 290.444 26.7945C291.126 27.0602 291.682 27.2893 292.112 27.4726C292.552 27.6559 293.036 27.8758 293.556 28.1507C294.086 28.4165 294.507 28.6731 294.83 28.9022C295.153 29.1313 295.485 29.4153 295.816 29.7452C296.148 30.0751 296.408 30.4234 296.588 30.7899C296.767 31.1565 296.911 31.5688 297.027 32.0362C297.144 32.5035 297.207 33.0167 297.207 33.5665C297.207 35.6101 296.462 37.1954 294.964 38.3409C293.467 39.4864 291.467 40.0545 288.956 40.0545C288.238 40.0545 287.521 39.9904 286.821 39.8712C286.122 39.7429 285.404 39.5322 284.678 39.2389C283.951 38.9365 283.305 38.5608 282.722 38.1026C282.139 37.6444 281.637 37.058 281.198 36.334C280.758 35.6101 280.453 34.7945 280.292 33.8781L282.157 33.0534C282.615 34.7578 283.413 36.0316 284.552 36.8563C285.691 37.6811 287.207 38.1026 289.09 38.1026C289.664 38.1026 290.22 38.0568 290.749 37.9743C291.278 37.8827 291.799 37.7361 292.31 37.5161C292.821 37.2962 293.26 37.0305 293.637 36.7006C294.014 36.3707 294.319 35.9491 294.543 35.4268C294.776 34.9045 294.884 34.3088 294.884 33.649C294.884 33.2275 294.83 32.8334 294.713 32.4852C294.597 32.137 294.48 31.8346 294.364 31.578C294.238 31.3214 293.996 31.0648 293.637 30.7899C293.269 30.5242 292.982 30.3134 292.767 30.1576C292.552 30.011 292.139 29.8094 291.538 29.562C290.929 29.3145 290.471 29.1313 290.175 29.0213C289.879 28.9113 289.314 28.7097 288.498 28.4256C288.364 28.3707 288.265 28.334 288.193 28.3157C286.391 27.6742 285.126 27.1519 284.426 26.7487C282.794 25.8231 281.861 24.6135 281.646 23.1106C281.619 22.8632 281.601 22.6066 281.601 22.3317C281.601 21.3878 281.808 20.5448 282.22 19.8025C282.633 19.0602 283.198 18.4554 283.897 18.0064C284.606 17.5574 285.386 17.2183 286.256 16.9892C287.117 16.7418 288.032 16.6318 289 16.6318Z" fill="#2498A4"/>
<path d="M321.476 39.6606H306.57V16.916H321.306V18.6571H308.795V26.648H319.682V28.4349H308.795V37.9103H321.476V39.6606Z" fill="#2498A4"/>
<path d="M28.6095 42.8866V56H17.085H12.0537H0V0H12.0537H13.0492V42.8866H28.6095Z" fill="#52C4C8"/>
<path d="M43.6413 0V16.7514H24.7178V29.8373H43.6413V56H56.4394V0H43.6413Z" fill="#2498A4"/>
</svg>
