<svg width="51" height="14" viewBox="0 0 51 14" fill="none" xmlns="http://www.w3.org/2000/svg">
<path d="M2.25249 0H5.35111L7.58627 13.7971H4.60028L4.32016 11.233H3.04375L2.78096 13.7971H0L2.25249 0ZM4.18732 9.28563C4.0747 8.18917 3.94186 6.83573 3.84945 5.94486C3.79169 5.47944 3.75704 5.034 3.7195 4.60855H3.68195C3.64441 5.03686 3.58954 5.48229 3.54911 5.94486C3.45671 6.85572 3.32387 8.19203 3.19391 9.28563H4.19021H4.18732Z" fill="#191919"/>
<path d="M7.99893 0H10.6886L11.2611 2.51743C11.5728 3.87936 11.9243 5.44487 12.1623 6.84407H12.1992C12.1056 5.31584 12.0688 3.95391 12.0688 2.7038V0H14.5572V13.7971H12.1992L11.5161 11.3915C11.091 9.91774 10.6489 8.57588 10.391 7.06485H10.3541C10.4647 8.12859 10.4845 10.3106 10.4845 11.2596V13.7971H7.99609V0H7.99893Z" fill="#191919"/>
<path d="M15.377 7C15.377 1.87561 16.5403 0 18.9636 0C21.387 0 22.5532 1.87561 22.5532 7C22.5532 12.1244 21.3699 14 18.9636 14C16.5573 14 15.377 12.1244 15.377 7ZM19.5552 7C19.5552 3.52855 19.5382 2.69209 18.9636 2.69209C18.3891 2.69209 18.372 3.52855 18.372 7C18.372 10.4715 18.3919 11.3993 18.9636 11.3993C19.5353 11.3993 19.5552 10.4715 19.5552 7Z" fill="#191919"/>
<path d="M24.115 2.53463H22.3486V0H28.9097V2.53463H27.1434V13.7971H24.115V2.53463Z" fill="#191919"/>
<path d="M29.3203 0H32.2976V5.31297H33.3142V0H36.2915V13.7971H33.3142V7.6641H32.2976V13.7971H29.3203V0Z" fill="#191919"/>
<path d="M37.1113 0H42.6088V2.53463H40.1468V5.29577H41.8965V7.64403H40.1468V11.3542H42.6473V13.7971H37.1113V0Z" fill="#191919"/>
<path d="M43.2656 0H46.3849C48.3841 0 50.0271 1.30432 50.0271 4.60381C50.0271 6.35532 49.5589 7.56791 48.8695 8.18424L50.2339 13.7971H47.3558L46.3275 9.19329H46.1207V13.7971H43.2627V0H43.2656ZM46.3677 7.04618C46.7612 7.04618 47.0973 6.63625 47.0973 4.64108C47.0973 2.7577 46.7612 2.5341 46.3505 2.5341H46.1264V7.04618H46.3706H46.3677Z" fill="#191919"/>
</svg>
