<svg width="322" height="56" viewBox="0 0 322 56" fill="none" xmlns="http://www.w3.org/2000/svg">
<path d="M97.6935 39.6606H84.1152V16.916H86.3394V37.9103H97.6935V39.6606Z" fill="black"/>
<path d="M108.303 39.6606H106.088V16.916H108.303V39.6606Z" fill="black"/>
<path d="M128.062 16.4946C129.811 16.4946 131.371 16.9437 132.716 17.8417C134.071 18.7398 135.057 20.0593 135.685 21.8005L133.829 22.6435C132.779 19.7661 130.86 18.3274 128.053 18.3274C125.569 18.3274 123.766 19.1705 122.636 20.8474C121.506 22.5244 120.95 25.0719 120.95 28.4717C120.95 30.0754 121.066 31.4683 121.309 32.6412C121.542 33.8142 121.927 34.8314 122.457 35.6745C122.986 36.5267 123.694 37.159 124.591 37.5897C125.479 38.0112 126.564 38.2312 127.829 38.2312C128.483 38.2312 129.147 38.1212 129.811 37.9013C130.474 37.6813 131.102 37.3514 131.694 36.9207C132.277 36.4901 132.761 35.9127 133.129 35.198C133.497 34.474 133.685 33.6768 133.685 32.7787V29.3606H128.026V27.4179H135.873V30.6527L135.721 39.6791H134.304L133.82 36.71C133.246 37.6905 132.394 38.4969 131.273 39.1201C130.151 39.7432 128.914 40.0548 127.551 40.0548C121.596 40.0548 118.627 36.1876 118.627 28.4626C118.627 26.3732 118.851 24.5496 119.3 23.0101C119.748 21.4706 120.385 20.2243 121.219 19.2804C122.062 18.3366 123.039 17.6401 124.178 17.1911C125.308 16.7146 126.609 16.4946 128.062 16.4946Z" fill="black"/>
<path d="M161.711 26.6667V16.9072H163.917V39.6518H161.711V28.4628H148.482V39.6518H146.258V16.9072H148.482V26.6667H161.711Z" fill="black"/>
<path d="M172.527 18.6486V16.8892H189.272V18.6486H182.061V39.652H179.738V18.6486H172.527Z" fill="black"/>
<path d="M213.961 26.6667V16.9072H216.167V39.6518H213.961V28.4628H200.732V39.6518H198.508V16.9072H200.732V26.6667H213.961Z" fill="black"/>
<path d="M235.638 16.4946C237.118 16.4946 238.419 16.7146 239.54 17.1453C240.661 17.576 241.629 18.2541 242.454 19.1613C243.279 20.0685 243.898 21.2781 244.32 22.7902C244.741 24.293 244.948 26.08 244.948 28.1418C244.948 32.2839 244.158 35.3079 242.589 37.1957C241.019 39.0926 238.697 40.0364 235.629 40.0364C234.141 40.0364 232.84 39.8165 231.719 39.3858C230.607 38.9551 229.638 38.2678 228.831 37.3331C228.024 36.3984 227.414 35.1705 227.002 33.6309C226.589 32.1006 226.383 30.2678 226.383 28.1418C226.383 26.0708 226.598 24.2839 227.011 22.7718C227.432 21.269 228.042 20.0502 228.858 19.1338C229.665 18.2174 230.634 17.5393 231.755 17.1178C232.876 16.7054 234.167 16.4946 235.638 16.4946ZM235.62 18.3091C234.562 18.3091 233.638 18.4557 232.84 18.7581C232.042 19.0605 231.387 19.482 230.867 20.0227C230.347 20.5634 229.925 21.2506 229.594 22.0845C229.271 22.9093 229.037 23.8165 228.903 24.797C228.768 25.7776 228.697 26.8955 228.697 28.1418C228.697 31.6332 229.226 34.1808 230.275 35.7936C231.324 37.4064 233.109 38.2128 235.629 38.2128C238.149 38.2128 239.943 37.4156 241.001 35.8211C242.051 34.2266 242.58 31.6699 242.58 28.1601C242.58 26.9047 242.508 25.7867 242.374 24.8062C242.239 23.8257 242.006 22.9185 241.674 22.0845C241.342 21.2598 240.912 20.5725 240.392 20.0227C239.862 19.482 239.199 19.0605 238.41 18.7581C237.611 18.4557 236.688 18.3091 235.62 18.3091Z" fill="black"/>
<path d="M254.777 30.7442V16.916H257.208V30.3685C257.208 31.3398 257.253 32.2012 257.342 32.9343C257.432 33.6674 257.611 34.3731 257.871 35.0512C258.132 35.7293 258.49 36.2883 258.921 36.719C259.36 37.1497 259.934 37.4979 260.643 37.7545C261.36 38.0111 262.203 38.1394 263.172 38.1394C264.14 38.1394 264.984 38.0111 265.692 37.7545C266.401 37.4979 266.975 37.1589 267.405 36.719C267.835 36.2883 268.185 35.7293 268.436 35.0512C268.696 34.3731 268.867 33.6674 268.957 32.9343C269.046 32.2012 269.091 31.349 269.091 30.3685V16.916H271.477V30.6342C271.477 33.8782 270.795 36.2608 269.423 37.7728C268.06 39.294 265.934 40.0455 263.064 40.0455C260.266 40.0455 258.176 39.3032 256.804 37.8187C255.468 36.3341 254.777 33.9699 254.777 30.7442Z" fill="black"/>
<path d="M289.001 16.6318C290.795 16.6318 292.311 16.9342 293.557 17.5482C294.795 18.1622 295.862 19.1519 296.741 20.5356L295.1 21.7819C294.499 20.7006 293.692 19.885 292.678 19.3168C291.665 18.7578 290.544 18.4738 289.315 18.4738C287.728 18.4738 286.427 18.7762 285.423 19.3718C284.418 19.9766 283.916 20.893 283.916 22.1393C283.916 22.625 284.024 23.074 284.239 23.4772C284.454 23.8804 284.705 24.2103 285.01 24.476C285.306 24.7326 285.71 24.9892 286.212 25.2366C286.714 25.4841 287.163 25.6765 287.566 25.814C287.97 25.9514 288.463 26.1164 289.064 26.3088C289.665 26.5013 290.122 26.6662 290.445 26.7945C291.127 27.0602 291.683 27.2893 292.113 27.4726C292.553 27.6559 293.037 27.8758 293.557 28.1507C294.087 28.4165 294.508 28.6731 294.831 28.9022C295.154 29.1313 295.486 29.4153 295.817 29.7452C296.149 30.0751 296.409 30.4234 296.589 30.7899C296.768 31.1565 296.912 31.5688 297.028 32.0362C297.145 32.5035 297.208 33.0167 297.208 33.5665C297.208 35.6101 296.463 37.1954 294.965 38.3409C293.468 39.4864 291.468 40.0545 288.957 40.0545C288.239 40.0545 287.522 39.9904 286.822 39.8712C286.122 39.7429 285.405 39.5322 284.679 39.2389C283.952 38.9365 283.306 38.5608 282.723 38.1026C282.14 37.6444 281.638 37.058 281.199 36.334C280.759 35.6101 280.454 34.7945 280.293 33.8781L282.158 33.0534C282.616 34.7578 283.414 36.0316 284.553 36.8563C285.692 37.6811 287.208 38.1026 289.091 38.1026C289.665 38.1026 290.221 38.0568 290.75 37.9743C291.279 37.8827 291.8 37.7361 292.311 37.5161C292.822 37.2962 293.261 37.0305 293.638 36.7006C294.015 36.3707 294.32 35.9491 294.544 35.4268C294.777 34.9045 294.885 34.3088 294.885 33.649C294.885 33.2275 294.831 32.8334 294.714 32.4852C294.598 32.137 294.481 31.8346 294.365 31.578C294.239 31.3214 293.997 31.0648 293.638 30.7899C293.27 30.5242 292.983 30.3134 292.768 30.1576C292.553 30.011 292.14 29.8094 291.539 29.562C290.93 29.3145 290.472 29.1313 290.176 29.0213C289.88 28.9113 289.315 28.7097 288.499 28.4256C288.365 28.3707 288.266 28.334 288.194 28.3157C286.392 27.6742 285.127 27.1519 284.427 26.7487C282.795 25.8231 281.862 24.6135 281.647 23.1106C281.62 22.8632 281.602 22.6066 281.602 22.3317C281.602 21.3878 281.809 20.5448 282.221 19.8025C282.634 19.0602 283.199 18.4554 283.898 18.0064C284.607 17.5574 285.387 17.2183 286.257 16.9892C287.118 16.7418 288.033 16.6318 289.001 16.6318Z" fill="black"/>
<path d="M321.476 39.6606H306.57V16.916H321.306V18.6571H308.795V26.648H319.682V28.4349H308.795V37.9103H321.476V39.6606Z" fill="black"/>
<path d="M28.6095 42.8866V56H17.085H12.0537H0V0H12.0537H13.0492V42.8866H28.6095Z" fill="black"/>
<path d="M43.6403 0V16.7514H24.7168V29.8373H43.6403V56H56.4384V0H43.6403Z" fill="black"/>
</svg>
