<svg width="33" height="185" viewBox="0 0 33 185" fill="none" xmlns="http://www.w3.org/2000/svg">
<path d="M23.5995 128.793L23.5995 136.605L10.5137 136.605L10.5137 135.325L22.5925 135.325L22.5925 128.793L23.5995 128.793Z" fill="black"/>
<path d="M23.5995 122.689L23.5995 123.963L10.5137 123.963L10.5137 122.689L23.5995 122.689Z" fill="black"/>
<path d="M10.2715 111.322C10.2715 110.315 10.5298 109.418 11.0465 108.644C11.5632 107.864 12.3224 107.297 13.3241 106.936L13.8092 108.004C12.1537 108.607 11.3259 109.712 11.3259 111.327C11.3259 112.756 11.811 113.793 12.7758 114.443C13.7406 115.093 15.2063 115.413 17.1624 115.413C18.085 115.413 18.8864 115.346 19.5612 115.207C20.2361 115.073 20.8213 114.851 21.3064 114.546C21.7967 114.242 22.1605 113.834 22.4083 113.318C22.6508 112.808 22.7773 112.183 22.7773 111.456C22.7773 111.079 22.7141 110.697 22.5875 110.315C22.461 109.934 22.2712 109.572 22.0234 109.232C21.7756 108.896 21.4434 108.618 21.0322 108.406C20.6157 108.195 20.157 108.086 19.6403 108.086L17.6738 108.086L17.6738 111.342L16.556 111.342L16.556 106.827L18.4172 106.827L23.6104 106.915L23.6104 107.73L21.9021 108.009C22.4663 108.339 22.9302 108.829 23.2887 109.474C23.6473 110.119 23.8265 110.831 23.8265 111.616C23.8265 115.042 21.6016 116.75 17.1571 116.75C15.955 116.75 14.9058 116.621 14.0201 116.363C13.1343 116.105 12.4173 115.738 11.8743 115.259C11.3312 114.774 10.9305 114.211 10.6722 113.556C10.398 112.906 10.2715 112.157 10.2715 111.322Z" fill="black"/>
<path d="M16.1238 91.9616L10.5088 91.9616L10.5088 90.6923L23.5946 90.6923L23.5946 91.9616L17.1571 91.9616L17.1571 99.5725L23.5946 99.5725L23.5946 100.852L10.5088 100.852L10.5088 99.5725L16.1238 99.5725L16.1238 91.9616Z" fill="black"/>
<path d="M11.5103 85.7388L10.498 85.7388L10.498 76.1052L11.5103 76.1052L11.5103 80.2538L23.5944 80.2538L23.5944 81.5902L11.5103 81.5902L11.5103 85.7388Z" fill="black"/>
<path d="M16.1238 61.8999L10.5088 61.8999L10.5088 60.6305L23.5946 60.6305L23.5946 61.8999L17.1571 61.8999L17.1571 69.5107L23.5946 69.5107L23.5946 70.7904L10.5088 70.7904L10.5088 69.5107L16.1238 69.5107L16.1238 61.8999Z" fill="black"/>
<path d="M10.2715 49.4285C10.2715 48.5771 10.398 47.8289 10.6458 47.1839C10.8936 46.539 11.2838 45.9817 11.8057 45.507C12.3277 45.0323 13.0236 44.6762 13.8935 44.4337C14.7582 44.1912 15.7863 44.0725 16.9726 44.0725C19.3556 44.0725 21.0955 44.5266 22.1816 45.4296C23.2729 46.3326 23.816 47.669 23.816 49.4337C23.816 50.2902 23.6894 51.0384 23.4416 51.6834C23.1938 52.3232 22.7984 52.8805 22.2607 53.3449C21.7229 53.8093 21.0164 54.1601 20.1306 54.3975C19.2502 54.6349 18.1957 54.7535 16.9726 54.7535C15.781 54.7535 14.7529 54.6297 13.883 54.3923C13.0183 54.1498 12.3171 53.799 11.7899 53.3294C11.2627 52.865 10.8725 52.3077 10.63 51.6628C10.3927 51.0178 10.2715 50.2747 10.2715 49.4285ZM11.3154 49.4388C11.3154 50.0477 11.3998 50.5792 11.5737 51.0384C11.7477 51.4976 11.9902 51.8743 12.3013 52.1736C12.6124 52.4729 13.0078 52.7154 13.4876 52.9063C13.9621 53.092 14.484 53.2262 15.0482 53.3036C15.6123 53.381 16.2555 53.4223 16.9726 53.4223C18.9813 53.4223 20.447 53.1178 21.3749 52.5141C22.3028 51.9104 22.7668 50.8836 22.7668 49.4337C22.7668 47.9837 22.3081 46.9518 21.3907 46.3429C20.4734 45.7392 19.0024 45.4347 16.9831 45.4347C16.2608 45.4347 15.6176 45.476 15.0534 45.5534C14.4893 45.6308 13.9674 45.765 13.4876 45.9559C13.0131 46.1468 12.6176 46.3945 12.3013 46.6938C11.9902 46.9982 11.7477 47.38 11.5737 47.8341C11.3998 48.2933 11.3154 48.8248 11.3154 49.4388Z" fill="black"/>
<path d="M18.4695 38.4171L10.5137 38.4171L10.5137 37.0188L18.2534 37.0188C18.8122 37.0188 19.3078 36.993 19.7296 36.9414C20.1514 36.8898 20.5574 36.7866 20.9475 36.6369C21.3377 36.4873 21.6593 36.2809 21.9071 36.0332C22.1549 35.7804 22.3552 35.4502 22.5028 35.0425C22.6505 34.6297 22.7243 34.1447 22.7243 33.5874C22.7243 33.0302 22.6505 32.5451 22.5028 32.1375C22.3552 31.7299 22.1601 31.3996 21.9071 31.152C21.6593 30.9043 21.3377 30.703 20.9475 30.5586C20.5574 30.4089 20.1514 30.3109 19.7296 30.2593C19.3078 30.2077 18.8175 30.1819 18.2534 30.1819L10.5137 30.1819L10.5137 28.8093L18.4063 28.8093C20.2727 28.8093 21.6435 29.2015 22.5134 29.991C23.3886 30.7753 23.8209 31.9982 23.8209 33.6493C23.8209 35.2592 23.3939 36.4615 22.5397 37.251C21.6856 38.0198 20.3254 38.4171 18.4695 38.4171Z" fill="black"/>
<path d="M10.3506 18.727C10.3506 17.695 10.5246 16.823 10.8778 16.1058C11.2311 15.3937 11.8005 14.7797 12.5966 14.274L13.3136 15.2183C12.6915 15.564 12.2222 16.0284 11.8954 16.6115C11.5738 17.1945 11.4103 17.8395 11.4103 18.5464C11.4103 19.4597 11.5843 20.2079 11.927 20.7858C12.275 21.3637 12.8022 21.6527 13.5192 21.6527C13.7987 21.6527 14.057 21.5908 14.289 21.4669C14.521 21.3431 14.7108 21.1986 14.8637 21.0232C15.0113 20.8529 15.1589 20.6207 15.3013 20.3318C15.4436 20.0428 15.5543 19.7848 15.6334 19.5526C15.7125 19.3204 15.8074 19.0366 15.9181 18.6909C16.0288 18.3452 16.1237 18.082 16.1975 17.8963C16.3504 17.5041 16.4822 17.1842 16.5877 16.9365C16.6931 16.6837 16.8197 16.4051 16.9778 16.1058C17.1307 15.8014 17.2784 15.5588 17.4102 15.3731C17.542 15.1873 17.7054 14.9964 17.8952 14.8055C18.085 14.6146 18.2854 14.4649 18.4963 14.3617C18.7072 14.2585 18.9444 14.176 19.2133 14.1089C19.4822 14.0418 19.7774 14.0057 20.0938 14.0057C21.2695 14.0057 22.1816 14.434 22.8406 15.2957C23.4997 16.1574 23.8265 17.3081 23.8265 18.7528C23.8265 19.1656 23.7896 19.5784 23.7211 19.9809C23.6473 20.3834 23.526 20.7962 23.3573 21.2141C23.1833 21.6321 22.9672 22.0036 22.7035 22.339C22.4399 22.6744 22.1025 22.9633 21.686 23.2162C21.2695 23.469 20.8002 23.6444 20.273 23.7373L19.7985 22.664C20.7792 22.4009 21.512 21.9417 21.9865 21.2863C22.461 20.631 22.7035 19.759 22.7035 18.6754C22.7035 18.3452 22.6772 18.0253 22.6297 17.7208C22.577 17.4164 22.4926 17.1171 22.3661 16.823C22.2396 16.5289 22.0867 16.2761 21.8969 16.0594C21.7071 15.8426 21.4646 15.6672 21.164 15.5382C20.8635 15.404 20.5208 15.3421 20.1412 15.3421C19.8987 15.3421 19.672 15.3731 19.4716 15.4402C19.2713 15.5072 19.0973 15.5743 18.9497 15.6414C18.8021 15.7136 18.6544 15.853 18.4963 16.0594C18.3434 16.2709 18.2221 16.436 18.1325 16.5599C18.0481 16.6837 17.9321 16.9211 17.7898 17.2668C17.6474 17.6176 17.542 17.8808 17.4787 18.0511C17.4154 18.2214 17.2995 18.5464 17.136 19.016C17.1044 19.0934 17.0833 19.1501 17.0727 19.1914C16.7037 20.2286 16.4032 20.9561 16.1712 21.3586C15.6387 22.2977 14.9427 22.8343 14.0781 22.9582C13.9357 22.9736 13.7881 22.984 13.6299 22.984C13.0869 22.984 12.6018 22.8653 12.1748 22.6279C11.7477 22.3906 11.3998 22.0655 11.1414 21.663C10.8831 21.2554 10.688 20.8065 10.5562 20.306C10.4139 19.8106 10.3506 19.2843 10.3506 18.727Z" fill="black"/>
<path d="M23.5995 0.0428652L23.5995 8.61865L10.5137 8.61865L10.5137 0.140905L11.5154 0.140905L11.5154 7.33899L16.1128 7.33899L16.1128 1.07485L17.1409 1.07485L17.1409 7.33899L22.5925 7.33899L22.5925 0.0428652L23.5995 0.0428652Z" fill="black"/>
<path d="M25.4555 168.54L33.0002 168.54L33.0002 175.17L33.0002 178.065L33.0002 185L0.78125 185L0.78125 178.065L0.78125 177.492L25.4555 177.492L25.4555 168.54Z" fill="black"/>
<path d="M0.78125 159.892L10.419 159.892L10.419 170.779L17.9478 170.779L17.9478 159.892L33.0002 159.892L33.0002 152.529L0.781249 152.529L0.78125 159.892Z" fill="black"/>
</svg>
